<svg xmlns="http://www.w3.org/2000/svg" xmlns:xlink="http://www.w3.org/1999/xlink" width="1200" zoomAndPan="magnify" viewBox="0 0 900 225" height="300" preserveAspectRatio="xMidYMid meet" version="1.0"><defs><g/><clipPath id="4aa7e8f6ad"><path d="M 493.683594 92.988281 L 554.433594 92.988281 L 554.433594 153.738281 L 493.683594 153.738281 Z M 493.683594 92.988281 " clip-rule="nonzero"/></clipPath><clipPath id="f766e70d3f"><path d="M 522 92.988281 L 526 92.988281 L 526 98 L 522 98 Z M 522 92.988281 " clip-rule="nonzero"/></clipPath><clipPath id="558f53fdde"><path d="M 493.683594 122 L 499 122 L 499 125 L 493.683594 125 Z M 493.683594 122 " clip-rule="nonzero"/></clipPath><clipPath id="a474388428"><path d="M 522 148 L 526 148 L 526 153.738281 L 522 153.738281 Z M 522 148 " clip-rule="nonzero"/></clipPath><clipPath id="8335d8b4f2"><path d="M 549 122 L 554.433594 122 L 554.433594 125 L 549 125 Z M 549 122 " clip-rule="nonzero"/></clipPath><clipPath id="202cb8a016"><path d="M 495.421875 94.722656 L 552.421875 94.722656 L 552.421875 151.722656 L 495.421875 151.722656 Z M 495.421875 94.722656 " clip-rule="nonzero"/></clipPath></defs><g clip-path="url(#4aa7e8f6ad)"><path fill="#246c21" d="M 523.960938 153.539062 C 519.871094 153.539062 515.90625 152.738281 512.175781 151.160156 C 508.570312 149.632812 505.332031 147.449219 502.550781 144.671875 C 499.769531 141.890625 497.589844 138.652344 496.0625 135.046875 C 494.484375 131.316406 493.683594 127.351562 493.683594 123.261719 C 493.683594 119.175781 494.484375 115.210938 496.0625 111.476562 C 497.589844 107.871094 499.769531 104.636719 502.550781 101.855469 C 505.332031 99.074219 508.570312 96.890625 512.175781 95.367188 C 515.90625 93.789062 519.871094 92.988281 523.960938 92.988281 C 528.046875 92.988281 532.011719 93.789062 535.742188 95.367188 C 539.347656 96.890625 542.585938 99.074219 545.367188 101.855469 C 548.148438 104.636719 550.328125 107.871094 551.855469 111.476562 C 553.433594 115.210938 554.234375 119.175781 554.234375 123.261719 C 554.234375 127.351562 553.433594 131.316406 551.855469 135.046875 C 550.328125 138.652344 548.148438 141.890625 545.367188 144.671875 C 542.585938 147.449219 539.347656 149.632812 535.742188 151.160156 C 532.011719 152.738281 528.046875 153.539062 523.960938 153.539062 Z M 523.960938 95.179688 C 520.167969 95.179688 516.488281 95.921875 513.027344 97.386719 C 509.683594 98.800781 506.679688 100.824219 504.101562 103.402344 C 501.519531 105.984375 499.496094 108.988281 498.082031 112.332031 C 496.617188 115.792969 495.875 119.472656 495.875 123.261719 C 495.875 127.054688 496.617188 130.734375 498.082031 134.195312 C 499.496094 137.539062 501.519531 140.542969 504.101562 143.121094 C 506.679688 145.703125 509.683594 147.726562 513.027344 149.140625 C 516.488281 150.605469 520.167969 151.347656 523.960938 151.347656 C 527.75 151.347656 531.429688 150.605469 534.890625 149.140625 C 538.234375 147.726562 541.238281 145.703125 543.816406 143.121094 C 546.398438 140.542969 548.421875 137.539062 549.835938 134.195312 C 551.300781 130.734375 552.042969 127.054688 552.042969 123.261719 C 552.042969 119.472656 551.300781 115.792969 549.835938 112.332031 C 548.421875 108.988281 546.398438 105.984375 543.816406 103.402344 C 541.238281 100.824219 538.234375 98.800781 534.890625 97.386719 C 531.429688 95.921875 527.75 95.179688 523.960938 95.179688 Z M 523.960938 95.179688 " fill-opacity="1" fill-rule="nonzero"/></g><path fill="#246c21" d="M 523.960938 144.863281 C 521.042969 144.863281 518.214844 144.292969 515.550781 143.164062 C 512.980469 142.078125 510.667969 140.519531 508.683594 138.535156 C 506.703125 136.554688 505.144531 134.242188 504.058594 131.671875 C 502.929688 129.007812 502.359375 126.179688 502.359375 123.261719 C 502.359375 120.347656 502.929688 117.519531 504.058594 114.855469 C 505.144531 112.28125 506.703125 109.972656 508.683594 107.988281 C 510.667969 106.007812 512.980469 104.449219 515.550781 103.359375 C 518.214844 102.234375 521.042969 101.664062 523.960938 101.664062 C 526.875 101.664062 529.703125 102.234375 532.367188 103.359375 C 534.941406 104.449219 537.25 106.007812 539.234375 107.988281 C 541.214844 109.972656 542.773438 112.28125 543.863281 114.855469 C 544.988281 117.519531 545.558594 120.347656 545.558594 123.261719 C 545.558594 126.179688 544.988281 129.007812 543.863281 131.671875 C 542.773438 134.242188 541.214844 136.554688 539.234375 138.535156 C 537.25 140.519531 534.941406 142.078125 532.367188 143.164062 C 529.703125 144.292969 526.875 144.863281 523.960938 144.863281 Z M 523.960938 103.851562 C 521.339844 103.851562 518.796875 104.367188 516.40625 105.378906 C 514.09375 106.355469 512.015625 107.753906 510.234375 109.539062 C 508.453125 111.320312 507.050781 113.398438 506.074219 115.707031 C 505.0625 118.101562 504.550781 120.640625 504.550781 123.261719 C 504.550781 125.882812 505.0625 128.425781 506.074219 130.816406 C 507.050781 133.128906 508.453125 135.203125 510.234375 136.988281 C 512.015625 138.769531 514.09375 140.171875 516.40625 141.148438 C 518.796875 142.160156 521.339844 142.671875 523.960938 142.671875 C 526.578125 142.671875 529.121094 142.160156 531.515625 141.148438 C 533.824219 140.171875 535.902344 138.769531 537.683594 136.988281 C 539.464844 135.203125 540.867188 133.128906 541.84375 130.816406 C 542.855469 128.425781 543.367188 125.882812 543.367188 123.261719 C 543.367188 120.640625 542.855469 118.101562 541.84375 115.707031 C 540.867188 113.398438 539.464844 111.320312 537.683594 109.539062 C 535.902344 107.753906 533.824219 106.355469 531.515625 105.378906 C 529.121094 104.367188 526.578125 103.851562 523.960938 103.851562 Z M 523.960938 103.851562 " fill-opacity="1" fill-rule="nonzero"/><path fill="#246c21" d="M 523.960938 129.878906 C 520.3125 129.878906 517.34375 126.910156 517.34375 123.261719 C 517.34375 119.613281 520.3125 116.648438 523.960938 116.648438 C 527.605469 116.648438 530.574219 119.613281 530.574219 123.261719 C 530.574219 126.910156 527.605469 129.878906 523.960938 129.878906 Z M 523.960938 118.835938 C 521.519531 118.835938 519.535156 120.824219 519.535156 123.261719 C 519.535156 125.703125 521.519531 127.6875 523.960938 127.6875 C 526.398438 127.6875 528.382812 125.703125 528.382812 123.261719 C 528.382812 120.824219 526.398438 118.835938 523.960938 118.835938 Z M 523.960938 118.835938 " fill-opacity="1" fill-rule="nonzero"/><g clip-path="url(#f766e70d3f)"><path fill="#246c21" d="M 523.960938 97.542969 C 523.355469 97.542969 522.863281 97.054688 522.863281 96.449219 L 522.863281 94.082031 C 522.863281 93.476562 523.355469 92.988281 523.960938 92.988281 C 524.5625 92.988281 525.054688 93.476562 525.054688 94.082031 L 525.054688 96.449219 C 525.054688 97.054688 524.5625 97.542969 523.960938 97.542969 Z M 523.960938 97.542969 " fill-opacity="1" fill-rule="nonzero"/></g><path fill="#246c21" d="M 517.019531 98.457031 C 516.535156 98.457031 516.09375 98.136719 515.960938 97.644531 L 515.347656 95.359375 C 515.191406 94.777344 515.539062 94.175781 516.125 94.019531 C 516.707031 93.863281 517.308594 94.210938 517.464844 94.792969 L 518.078125 97.078125 C 518.234375 97.664062 517.886719 98.265625 517.300781 98.421875 C 517.207031 98.445312 517.113281 98.457031 517.019531 98.457031 Z M 517.019531 98.457031 " fill-opacity="1" fill-rule="nonzero"/><path fill="#246c21" d="M 510.554688 101.136719 C 510.175781 101.136719 509.804688 100.941406 509.605469 100.589844 L 508.421875 98.539062 C 508.117188 98.015625 508.296875 97.347656 508.820312 97.042969 C 509.34375 96.742188 510.015625 96.921875 510.316406 97.445312 L 511.5 99.492188 C 511.804688 100.015625 511.625 100.6875 511.101562 100.988281 C 510.925781 101.089844 510.738281 101.136719 510.554688 101.136719 Z M 510.554688 101.136719 " fill-opacity="1" fill-rule="nonzero"/><path fill="#246c21" d="M 505 105.398438 C 504.71875 105.398438 504.4375 105.292969 504.222656 105.078125 L 502.550781 103.402344 C 502.125 102.976562 502.125 102.28125 502.550781 101.855469 C 502.980469 101.425781 503.671875 101.425781 504.101562 101.855469 L 505.773438 103.527344 C 506.199219 103.957031 506.199219 104.648438 505.773438 105.078125 C 505.558594 105.289062 505.277344 105.398438 505 105.398438 Z M 505 105.398438 " fill-opacity="1" fill-rule="nonzero"/><path fill="#246c21" d="M 500.738281 110.953125 C 500.550781 110.953125 500.363281 110.902344 500.191406 110.804688 L 498.140625 109.621094 C 497.617188 109.320312 497.4375 108.648438 497.738281 108.125 C 498.042969 107.601562 498.710938 107.421875 499.234375 107.722656 L 501.285156 108.90625 C 501.808594 109.210938 501.988281 109.878906 501.6875 110.402344 C 501.484375 110.753906 501.113281 110.953125 500.738281 110.953125 Z M 500.738281 110.953125 " fill-opacity="1" fill-rule="nonzero"/><path fill="#246c21" d="M 498.058594 117.417969 C 497.964844 117.417969 497.871094 117.40625 497.773438 117.382812 L 495.488281 116.769531 C 494.90625 116.613281 494.558594 116.011719 494.714844 115.425781 C 494.871094 114.84375 495.472656 114.496094 496.058594 114.652344 L 498.34375 115.265625 C 498.925781 115.421875 499.273438 116.023438 499.117188 116.605469 C 498.984375 117.097656 498.542969 117.417969 498.058594 117.417969 Z M 498.058594 117.417969 " fill-opacity="1" fill-rule="nonzero"/><g clip-path="url(#558f53fdde)"><path fill="#246c21" d="M 497.144531 124.359375 L 494.777344 124.359375 C 494.175781 124.359375 493.683594 123.867188 493.683594 123.261719 C 493.683594 122.65625 494.175781 122.167969 494.777344 122.167969 L 497.144531 122.167969 C 497.75 122.167969 498.242188 122.65625 498.242188 123.261719 C 498.242188 123.867188 497.75 124.359375 497.144531 124.359375 Z M 497.144531 124.359375 " fill-opacity="1" fill-rule="nonzero"/></g><path fill="#246c21" d="M 495.773438 131.910156 C 495.289062 131.910156 494.847656 131.589844 494.714844 131.097656 C 494.558594 130.515625 494.90625 129.914062 495.488281 129.757812 L 497.773438 129.144531 C 498.359375 128.988281 498.960938 129.335938 499.117188 129.917969 C 499.273438 130.503906 498.925781 131.105469 498.34375 131.261719 L 496.058594 131.875 C 495.960938 131.898438 495.867188 131.910156 495.773438 131.910156 Z M 495.773438 131.910156 " fill-opacity="1" fill-rule="nonzero"/><path fill="#246c21" d="M 498.691406 138.949219 C 498.3125 138.949219 497.941406 138.753906 497.738281 138.402344 C 497.4375 137.875 497.617188 137.207031 498.140625 136.90625 L 500.191406 135.722656 C 500.714844 135.417969 501.382812 135.597656 501.6875 136.121094 C 501.988281 136.644531 501.808594 137.316406 501.285156 137.617188 L 499.234375 138.800781 C 499.0625 138.902344 498.875 138.949219 498.691406 138.949219 Z M 498.691406 138.949219 " fill-opacity="1" fill-rule="nonzero"/><path fill="#246c21" d="M 503.324219 144.992188 C 503.046875 144.992188 502.765625 144.886719 502.550781 144.671875 C 502.125 144.242188 502.125 143.550781 502.550781 143.121094 L 504.222656 141.449219 C 504.652344 141.019531 505.34375 141.019531 505.773438 141.449219 C 506.199219 141.875 506.199219 142.570312 505.773438 142.996094 L 504.101562 144.671875 C 503.886719 144.886719 503.605469 144.992188 503.324219 144.992188 Z M 503.324219 144.992188 " fill-opacity="1" fill-rule="nonzero"/><path fill="#246c21" d="M 509.367188 149.628906 C 509.183594 149.628906 508.992188 149.582031 508.820312 149.480469 C 508.296875 149.179688 508.117188 148.511719 508.421875 147.984375 L 509.605469 145.9375 C 509.90625 145.414062 510.574219 145.234375 511.101562 145.535156 C 511.625 145.839844 511.804688 146.507812 511.5 147.03125 L 510.316406 149.082031 C 510.113281 149.433594 509.746094 149.628906 509.367188 149.628906 Z M 509.367188 149.628906 " fill-opacity="1" fill-rule="nonzero"/><path fill="#246c21" d="M 516.40625 152.542969 C 516.3125 152.542969 516.21875 152.53125 516.125 152.507812 C 515.539062 152.351562 515.191406 151.75 515.347656 151.164062 L 515.960938 148.878906 C 516.117188 148.296875 516.71875 147.949219 517.300781 148.105469 C 517.886719 148.261719 518.234375 148.863281 518.078125 149.445312 L 517.464844 151.730469 C 517.332031 152.222656 516.890625 152.542969 516.40625 152.542969 Z M 516.40625 152.542969 " fill-opacity="1" fill-rule="nonzero"/><g clip-path="url(#a474388428)"><path fill="#246c21" d="M 523.960938 153.539062 C 523.355469 153.539062 522.863281 153.046875 522.863281 152.441406 L 522.863281 150.078125 C 522.863281 149.472656 523.355469 148.980469 523.960938 148.980469 C 524.5625 148.980469 525.054688 149.472656 525.054688 150.078125 L 525.054688 152.441406 C 525.054688 153.046875 524.5625 153.539062 523.960938 153.539062 Z M 523.960938 153.539062 " fill-opacity="1" fill-rule="nonzero"/></g><path fill="#246c21" d="M 531.511719 152.542969 C 531.027344 152.542969 530.585938 152.222656 530.453125 151.730469 L 529.839844 149.445312 C 529.683594 148.863281 530.03125 148.261719 530.617188 148.105469 C 531.199219 147.949219 531.800781 148.296875 531.957031 148.878906 L 532.570312 151.164062 C 532.726562 151.75 532.378906 152.351562 531.796875 152.507812 C 531.699219 152.53125 531.605469 152.542969 531.511719 152.542969 Z M 531.511719 152.542969 " fill-opacity="1" fill-rule="nonzero"/><path fill="#246c21" d="M 538.550781 149.628906 C 538.171875 149.628906 537.804688 149.433594 537.601562 149.082031 L 536.417969 147.03125 C 536.113281 146.507812 536.292969 145.839844 536.820312 145.535156 C 537.34375 145.234375 538.011719 145.414062 538.316406 145.9375 L 539.496094 147.984375 C 539.800781 148.511719 539.621094 149.179688 539.097656 149.480469 C 538.925781 149.582031 538.734375 149.628906 538.550781 149.628906 Z M 538.550781 149.628906 " fill-opacity="1" fill-rule="nonzero"/><path fill="#246c21" d="M 544.59375 144.992188 C 544.3125 144.992188 544.03125 144.886719 543.816406 144.671875 L 542.144531 142.996094 C 541.71875 142.570312 541.71875 141.875 542.144531 141.449219 C 542.574219 141.019531 543.265625 141.019531 543.695312 141.449219 L 545.367188 143.121094 C 545.792969 143.550781 545.792969 144.242188 545.367188 144.671875 C 545.152344 144.886719 544.871094 144.992188 544.59375 144.992188 Z M 544.59375 144.992188 " fill-opacity="1" fill-rule="nonzero"/><path fill="#246c21" d="M 549.230469 138.949219 C 549.042969 138.949219 548.855469 138.902344 548.683594 138.800781 L 546.632812 137.617188 C 546.109375 137.316406 545.929688 136.644531 546.230469 136.121094 C 546.535156 135.597656 547.203125 135.417969 547.726562 135.722656 L 549.777344 136.90625 C 550.300781 137.207031 550.480469 137.875 550.179688 138.402344 C 549.976562 138.753906 549.605469 138.949219 549.230469 138.949219 Z M 549.230469 138.949219 " fill-opacity="1" fill-rule="nonzero"/><path fill="#246c21" d="M 552.144531 131.910156 C 552.050781 131.910156 551.957031 131.898438 551.863281 131.875 L 549.574219 131.261719 C 548.992188 131.105469 548.644531 130.503906 548.800781 129.917969 C 548.957031 129.335938 549.558594 128.988281 550.144531 129.144531 L 552.429688 129.757812 C 553.011719 129.914062 553.359375 130.515625 553.203125 131.097656 C 553.070312 131.589844 552.628906 131.910156 552.144531 131.910156 Z M 552.144531 131.910156 " fill-opacity="1" fill-rule="nonzero"/><g clip-path="url(#8335d8b4f2)"><path fill="#246c21" d="M 553.140625 124.359375 L 550.773438 124.359375 C 550.167969 124.359375 549.679688 123.867188 549.679688 123.261719 C 549.679688 122.65625 550.167969 122.167969 550.773438 122.167969 L 553.140625 122.167969 C 553.746094 122.167969 554.234375 122.65625 554.234375 123.261719 C 554.234375 123.867188 553.746094 124.359375 553.140625 124.359375 Z M 553.140625 124.359375 " fill-opacity="1" fill-rule="nonzero"/></g><path fill="#246c21" d="M 549.859375 117.417969 C 549.375 117.417969 548.933594 117.097656 548.800781 116.605469 C 548.644531 116.023438 548.992188 115.421875 549.574219 115.265625 L 551.863281 114.652344 C 552.445312 114.496094 553.046875 114.84375 553.203125 115.425781 C 553.359375 116.011719 553.011719 116.613281 552.429688 116.769531 L 550.144531 117.382812 C 550.046875 117.40625 549.953125 117.417969 549.859375 117.417969 Z M 549.859375 117.417969 " fill-opacity="1" fill-rule="nonzero"/><path fill="#246c21" d="M 547.183594 110.953125 C 546.804688 110.953125 546.433594 110.753906 546.230469 110.402344 C 545.929688 109.878906 546.109375 109.210938 546.632812 108.90625 L 548.683594 107.722656 C 549.207031 107.421875 549.875 107.601562 550.179688 108.125 C 550.480469 108.648438 550.300781 109.320312 549.777344 109.621094 L 547.726562 110.804688 C 547.554688 110.902344 547.367188 110.953125 547.183594 110.953125 Z M 547.183594 110.953125 " fill-opacity="1" fill-rule="nonzero"/><path fill="#246c21" d="M 542.917969 105.398438 C 542.640625 105.398438 542.359375 105.292969 542.144531 105.078125 C 541.71875 104.648438 541.71875 103.957031 542.144531 103.527344 L 543.816406 101.855469 C 544.246094 101.425781 544.9375 101.425781 545.367188 101.855469 C 545.792969 102.28125 545.792969 102.976562 545.367188 103.402344 L 543.695312 105.078125 C 543.480469 105.292969 543.199219 105.398438 542.917969 105.398438 Z M 542.917969 105.398438 " fill-opacity="1" fill-rule="nonzero"/><path fill="#246c21" d="M 537.363281 101.136719 C 537.179688 101.136719 536.992188 101.089844 536.820312 100.988281 C 536.292969 100.6875 536.113281 100.019531 536.417969 99.492188 L 537.601562 97.445312 C 537.902344 96.921875 538.574219 96.742188 539.097656 97.042969 C 539.621094 97.347656 539.800781 98.015625 539.496094 98.539062 L 538.316406 100.589844 C 538.113281 100.941406 537.742188 101.136719 537.363281 101.136719 Z M 537.363281 101.136719 " fill-opacity="1" fill-rule="nonzero"/><path fill="#246c21" d="M 530.898438 98.457031 C 530.804688 98.457031 530.710938 98.445312 530.617188 98.421875 C 530.03125 98.265625 529.683594 97.664062 529.839844 97.078125 L 530.453125 94.792969 C 530.609375 94.210938 531.210938 93.863281 531.796875 94.019531 C 532.378906 94.175781 532.726562 94.777344 532.570312 95.359375 L 531.957031 97.644531 C 531.824219 98.136719 531.382812 98.457031 530.898438 98.457031 Z M 530.898438 98.457031 " fill-opacity="1" fill-rule="nonzero"/><path fill="#246c21" d="M 525.535156 123.261719 C 525.535156 123.472656 525.496094 123.671875 525.417969 123.867188 C 525.335938 124.058594 525.222656 124.230469 525.074219 124.378906 C 524.925781 124.527344 524.757812 124.640625 524.5625 124.71875 C 524.371094 124.800781 524.167969 124.839844 523.960938 124.839844 C 523.75 124.839844 523.546875 124.800781 523.355469 124.71875 C 523.164062 124.640625 522.992188 124.527344 522.84375 124.378906 C 522.695312 124.230469 522.582031 124.058594 522.5 123.867188 C 522.421875 123.671875 522.382812 123.472656 522.382812 123.261719 C 522.382812 123.054688 522.421875 122.851562 522.503906 122.660156 C 522.582031 122.464844 522.695312 122.296875 522.84375 122.148438 C 522.992188 122 523.164062 121.886719 523.355469 121.804688 C 523.546875 121.726562 523.75 121.6875 523.960938 121.6875 C 524.167969 121.6875 524.371094 121.726562 524.5625 121.804688 C 524.757812 121.886719 524.925781 122 525.074219 122.148438 C 525.222656 122.296875 525.335938 122.464844 525.417969 122.660156 C 525.496094 122.851562 525.535156 123.054688 525.535156 123.261719 Z M 525.535156 123.261719 " fill-opacity="1" fill-rule="nonzero"/><path fill="#246c21" d="M 523.960938 125.9375 C 522.484375 125.9375 521.285156 124.738281 521.285156 123.261719 C 521.285156 121.789062 522.484375 120.589844 523.960938 120.589844 C 525.433594 120.589844 526.632812 121.789062 526.632812 123.261719 C 526.632812 124.738281 525.433594 125.9375 523.960938 125.9375 Z M 523.960938 122.78125 C 523.695312 122.78125 523.476562 122.996094 523.476562 123.261719 C 523.476562 123.527344 523.695312 123.746094 523.960938 123.746094 C 524.226562 123.746094 524.441406 123.527344 524.441406 123.261719 C 524.441406 122.996094 524.226562 122.78125 523.960938 122.78125 Z M 523.960938 122.78125 " fill-opacity="1" fill-rule="nonzero"/><path fill="#246c21" d="M 522.863281 102.757812 L 525.054688 102.757812 L 525.054688 117.742188 L 522.863281 117.742188 Z M 522.863281 102.757812 " fill-opacity="1" fill-rule="nonzero"/><path fill="#246c21" d="M 504.113281 117.96875 L 504.789062 115.882812 L 519.046875 120.515625 L 518.371094 122.597656 Z M 504.113281 117.96875 " fill-opacity="1" fill-rule="nonzero"/><path fill="#246c21" d="M 511.019531 139.210938 L 519.828125 127.085938 L 521.601562 128.375 L 512.792969 140.496094 Z M 511.019531 139.210938 " fill-opacity="1" fill-rule="nonzero"/><path fill="#246c21" d="M 526.316406 128.371094 L 528.089844 127.085938 L 536.898438 139.207031 L 535.125 140.496094 Z M 526.316406 128.371094 " fill-opacity="1" fill-rule="nonzero"/><path fill="#246c21" d="M 528.871094 120.515625 L 543.128906 115.882812 L 543.804688 117.964844 L 529.550781 122.597656 Z M 528.871094 120.515625 " fill-opacity="1" fill-rule="nonzero"/><g clip-path="url(#202cb8a016)"><path fill="#25632d" d="M 513.746094 149.898438 C 510.191406 148.539062 506.949219 146.5 504.179688 143.832031 C 501.40625 141.167969 499.238281 138.03125 497.71875 134.527344 C 496.257812 131.128906 495.5 127.546875 495.421875 123.835938 C 495.339844 120.121094 495.96875 116.515625 497.300781 113.0625 C 498.660156 109.507812 500.699219 106.265625 503.367188 103.496094 C 506.035156 100.722656 509.171875 98.554688 512.675781 97.039062 C 516.074219 95.574219 519.65625 94.816406 523.367188 94.738281 C 527.078125 94.660156 530.6875 95.285156 534.136719 96.621094 C 537.691406 97.980469 540.933594 100.019531 543.707031 102.683594 C 546.476562 105.351562 548.648438 108.488281 550.164062 111.992188 C 551.628906 115.390625 552.386719 118.972656 552.464844 122.683594 C 552.542969 126.394531 551.914062 130.003906 550.582031 133.453125 C 549.222656 137.011719 547.183594 140.253906 544.515625 143.023438 C 541.851562 145.792969 538.714844 147.964844 535.210938 149.480469 C 531.8125 150.945312 528.230469 151.703125 524.515625 151.78125 C 524.308594 151.78125 524.125 151.78125 523.914062 151.78125 C 520.414062 151.78125 516.988281 151.152344 513.746094 149.898438 Z M 523.417969 97.898438 C 516.648438 98.03125 510.320312 100.800781 505.640625 105.691406 C 500.960938 110.578125 498.453125 117.011719 498.582031 123.78125 C 498.714844 130.554688 501.484375 136.878906 506.375 141.558594 C 511.132812 146.132812 517.355469 148.617188 523.941406 148.617188 C 524.125 148.617188 524.28125 148.617188 524.464844 148.617188 C 531.234375 148.488281 537.5625 145.714844 542.242188 140.828125 C 546.921875 135.9375 549.429688 129.507812 549.300781 122.734375 C 549.171875 115.964844 546.398438 109.636719 541.511719 104.957031 C 536.753906 100.382812 530.53125 97.898438 523.941406 97.898438 C 517.355469 97.898438 523.601562 97.898438 523.417969 97.898438 Z M 523.417969 97.898438 " fill-opacity="1" fill-rule="nonzero"/></g><g fill="#1f3d2b" fill-opacity="1"><g transform="translate(197.548227, 151.812546)"><g><path d="M 64.953125 -18.453125 C 65.453125 -14.066406 66.113281 -10.429688 66.9375 -7.546875 C 67.769531 -4.671875 68.941406 -2.15625 70.453125 0 L 52 0 C 51.0625 -2.59375 50.320312 -5.109375 49.78125 -7.546875 C 49.25 -9.992188 48.800781 -12.765625 48.4375 -15.859375 C 47.9375 -19.890625 46.894531 -23.054688 45.3125 -25.359375 C 43.726562 -27.660156 41.535156 -28.914062 38.734375 -29.125 C 37.722656 -29.195312 36.734375 -29.234375 35.765625 -29.234375 C 34.796875 -29.234375 33.804688 -29.234375 32.796875 -29.234375 L 26.109375 -29.234375 L 26.109375 0 L 9.171875 0 L 9.171875 -74.4375 L 37.4375 -74.4375 C 39.664062 -74.4375 41.609375 -74.398438 43.265625 -74.328125 C 44.921875 -74.265625 46.71875 -74.125 48.65625 -73.90625 C 52.25 -73.46875 55.539062 -72.53125 58.53125 -71.09375 C 61.519531 -69.65625 63.910156 -67.570312 65.703125 -64.84375 C 67.503906 -62.113281 68.40625 -58.550781 68.40625 -54.15625 C 68.40625 -49.414062 67.109375 -45.515625 64.515625 -42.453125 C 61.929688 -39.398438 58.300781 -37.1875 53.625 -35.8125 C 57.4375 -34.445312 60.164062 -32.289062 61.8125 -29.34375 C 63.46875 -26.394531 64.515625 -22.765625 64.953125 -18.453125 Z M 26.109375 -41.640625 L 34.84375 -41.640625 C 36.070312 -41.640625 37.148438 -41.640625 38.078125 -41.640625 C 39.015625 -41.640625 39.84375 -41.675781 40.5625 -41.75 C 43.300781 -42.039062 45.675781 -42.882812 47.6875 -44.28125 C 49.695312 -45.6875 50.703125 -48.082031 50.703125 -51.46875 C 50.703125 -54.84375 49.800781 -57.210938 48 -58.578125 C 46.207031 -59.953125 43.945312 -60.78125 41.21875 -61.0625 C 40.5 -61.132812 39.671875 -61.1875 38.734375 -61.21875 C 37.796875 -61.257812 36.71875 -61.28125 35.5 -61.28125 L 26.109375 -61.28125 Z M 26.109375 -41.640625 "/></g></g></g><g fill="#1f3d2b" fill-opacity="1"><g transform="translate(267.248076, 151.812546)"><g><path d="M 60.421875 -29.78125 C 60.421875 -28.269531 60.3125 -26.472656 60.09375 -24.390625 L 19.75 -24.390625 C 20.25 -18.921875 21.59375 -15.175781 23.78125 -13.15625 C 25.976562 -11.144531 28.660156 -10.140625 31.828125 -10.140625 C 34.773438 -10.140625 37.203125 -10.910156 39.109375 -12.453125 C 41.015625 -14.003906 42.21875 -16.109375 42.71875 -18.765625 L 59.453125 -18.765625 C 57.867188 -12.148438 54.578125 -7.113281 49.578125 -3.65625 C 44.578125 -0.207031 38.550781 1.515625 31.5 1.515625 C 26.175781 1.515625 21.335938 0.414062 16.984375 -1.78125 C 12.640625 -3.976562 9.191406 -7.304688 6.640625 -11.765625 C 4.085938 -16.222656 2.8125 -21.832031 2.8125 -28.59375 C 2.8125 -34.34375 4.03125 -39.519531 6.46875 -44.125 C 8.914062 -48.726562 12.367188 -52.359375 16.828125 -55.015625 C 21.285156 -57.679688 26.535156 -59.015625 32.578125 -59.015625 C 38.691406 -59.015625 43.816406 -57.644531 47.953125 -54.90625 C 52.085938 -52.175781 55.195312 -48.582031 57.28125 -44.125 C 59.375 -39.664062 60.421875 -34.882812 60.421875 -29.78125 Z M 31.828125 -47.359375 C 28.804688 -47.359375 26.285156 -46.367188 24.265625 -44.390625 C 22.253906 -42.421875 20.890625 -39.3125 20.171875 -35.0625 L 42.828125 -35.0625 C 41.828125 -43.257812 38.160156 -47.359375 31.828125 -47.359375 Z M 31.828125 -47.359375 "/></g></g></g><g fill="#1f3d2b" fill-opacity="1"><g transform="translate(328.532157, 151.812546)"><g><path d="M 61.828125 -43.15625 C 62.035156 -41.71875 62.175781 -40.148438 62.25 -38.453125 C 62.320312 -36.765625 62.359375 -34.769531 62.359375 -32.46875 L 62.359375 0 L 45.421875 0 L 45.421875 -29.890625 C 45.421875 -30.960938 45.421875 -32.203125 45.421875 -33.609375 C 45.421875 -35.015625 45.347656 -36.4375 45.203125 -37.875 C 44.984375 -40.820312 44.046875 -43.140625 42.390625 -44.828125 C 40.742188 -46.515625 38.265625 -47.359375 34.953125 -47.359375 C 31.648438 -47.359375 28.878906 -45.738281 26.640625 -42.5 C 24.410156 -39.269531 23.296875 -33.988281 23.296875 -26.65625 L 23.296875 0 L 6.359375 0 L 6.359375 -57.5 L 23.296875 -57.5 L 23.296875 -48.4375 L 28.046875 -55.34375 C 31.710938 -57.789062 36.175781 -59.015625 41.4375 -59.015625 C 47.476562 -59.015625 52.222656 -57.628906 55.671875 -54.859375 C 59.117188 -52.085938 61.171875 -48.1875 61.828125 -43.15625 Z M 61.828125 -43.15625 "/></g></g></g><g fill="#1f3d2b" fill-opacity="1"><g transform="translate(394.455697, 151.812546)"><g><path d="M 26.65625 -46.28125 L 26.65625 -22.125 C 26.65625 -21.1875 26.65625 -20.25 26.65625 -19.3125 C 26.65625 -18.375 26.6875 -17.507812 26.75 -16.71875 C 26.96875 -13.84375 27.773438 -11.972656 29.171875 -11.109375 C 30.578125 -10.242188 33.441406 -9.957031 37.765625 -10.25 L 37.765625 0.546875 C 36.035156 0.828125 34.320312 1.039062 32.625 1.1875 C 30.9375 1.332031 29.160156 1.40625 27.296875 1.40625 C 20.960938 1.40625 16.570312 0.363281 14.125 -1.71875 C 11.6875 -3.8125 10.285156 -6.941406 9.921875 -11.109375 C 9.847656 -12.546875 9.789062 -13.96875 9.75 -15.375 C 9.71875 -16.78125 9.703125 -18.273438 9.703125 -19.859375 L 9.703125 -46.28125 L 0.96875 -46.28125 L 0.96875 -57.078125 L 9.703125 -57.078125 L 9.703125 -71.53125 L 26.65625 -71.53125 L 26.65625 -57.078125 L 38.84375 -57.078125 L 38.84375 -46.28125 Z M 26.65625 -46.28125 "/></g></g></g><g fill="#5faf3c" fill-opacity="1"><g transform="translate(433.083377, 151.812546)"><g><path d="M 64.40625 -14.234375 L 64.40625 0 L 9.171875 0 L 9.171875 -74.4375 L 26.109375 -74.4375 L 26.109375 -14.234375 Z M 64.40625 -14.234375 "/></g></g></g><g fill="#5faf3c" fill-opacity="1"><g transform="translate(497.290402, 151.812546)"><g/></g></g><g fill="#5faf3c" fill-opacity="1"><g transform="translate(515.200874, 151.812546)"><g/></g></g><g fill="#5faf3c" fill-opacity="1"><g transform="translate(533.111345, 151.812546)"><g/></g></g><g fill="#5faf3c" fill-opacity="1"><g transform="translate(551.032587, 151.812546)"><g><path d="M 32.265625 -59.015625 C 37.648438 -59.015625 42.285156 -58.003906 46.171875 -55.984375 C 50.054688 -53.972656 53.113281 -51.257812 55.34375 -47.84375 C 57.570312 -44.425781 58.832031 -40.5625 59.125 -36.25 L 42.609375 -36.25 C 42.035156 -40.207031 40.796875 -43.046875 38.890625 -44.765625 C 36.984375 -46.492188 34.628906 -47.359375 31.828125 -47.359375 C 28.304688 -47.359375 25.484375 -45.882812 23.359375 -42.9375 C 21.234375 -39.988281 20.171875 -35.457031 20.171875 -29.34375 C 20.171875 -22.65625 21.234375 -17.78125 23.359375 -14.71875 C 25.484375 -11.664062 28.304688 -10.140625 31.828125 -10.140625 C 34.421875 -10.140625 36.671875 -11.019531 38.578125 -12.78125 C 40.484375 -14.539062 41.757812 -17.078125 42.40625 -20.390625 L 59.125 -20.390625 C 57.96875 -13.203125 54.835938 -7.753906 49.734375 -4.046875 C 44.628906 -0.335938 38.335938 1.515625 30.859375 1.515625 C 25.535156 1.515625 20.75 0.382812 16.5 -1.875 C 12.257812 -4.144531 8.914062 -7.492188 6.46875 -11.921875 C 4.03125 -16.347656 2.8125 -21.796875 2.8125 -28.265625 C 2.8125 -34.878906 4.140625 -40.46875 6.796875 -45.03125 C 9.453125 -49.601562 13.007812 -53.078125 17.46875 -55.453125 C 21.9375 -57.828125 26.867188 -59.015625 32.265625 -59.015625 Z M 32.265625 -59.015625 "/></g></g></g><g fill="#5faf3c" fill-opacity="1"><g transform="translate(610.698245, 151.812546)"><g><path d="M 39.921875 0 L 38.734375 -8.421875 L 36.140625 -2.265625 C 34.128906 -0.972656 31.914062 -0.0195312 29.5 0.59375 C 27.09375 1.207031 24.5625 1.515625 21.90625 1.515625 C 18.664062 1.515625 15.640625 0.867188 12.828125 -0.421875 C 10.023438 -1.722656 7.757812 -3.628906 6.03125 -6.140625 C 4.3125 -8.660156 3.453125 -11.722656 3.453125 -15.328125 C 3.453125 -21.578125 6.148438 -26.445312 11.546875 -29.9375 C 16.941406 -33.425781 24.707031 -35.171875 34.84375 -35.171875 L 38.515625 -35.171875 L 38.515625 -36.140625 C 38.515625 -36.929688 38.515625 -37.722656 38.515625 -38.515625 C 38.515625 -39.304688 38.441406 -40.171875 38.296875 -41.109375 C 38.148438 -42.835938 37.410156 -44.3125 36.078125 -45.53125 C 34.753906 -46.75 32.832031 -47.359375 30.3125 -47.359375 C 27.65625 -47.359375 25.609375 -46.582031 24.171875 -45.03125 C 22.734375 -43.488281 21.90625 -41.28125 21.6875 -38.40625 L 5.5 -38.40625 C 5.644531 -42.789062 6.847656 -46.507812 9.109375 -49.5625 C 11.378906 -52.625 14.421875 -54.960938 18.234375 -56.578125 C 22.046875 -58.203125 26.289062 -59.015625 30.96875 -59.015625 C 36.644531 -59.015625 41.191406 -58.257812 44.609375 -56.75 C 48.023438 -55.238281 50.539062 -53.148438 52.15625 -50.484375 C 53.78125 -47.828125 54.738281 -44.773438 55.03125 -41.328125 C 55.238281 -38.660156 55.34375 -35.566406 55.34375 -32.046875 L 55.34375 -14.5625 C 55.34375 -12.40625 55.414062 -10.226562 55.5625 -8.03125 C 55.707031 -5.84375 55.992188 -3.164062 56.421875 0 Z M 28.59375 -10.140625 C 31.101562 -10.140625 33.382812 -11.054688 35.4375 -12.890625 C 37.488281 -14.722656 38.515625 -17.40625 38.515625 -20.9375 L 38.515625 -25.140625 C 33.265625 -25.566406 29.003906 -25.113281 25.734375 -23.78125 C 22.460938 -22.457031 20.828125 -20.101562 20.828125 -16.71875 C 20.828125 -14.5625 21.546875 -12.925781 22.984375 -11.8125 C 24.421875 -10.695312 26.289062 -10.140625 28.59375 -10.140625 Z M 28.59375 -10.140625 "/></g></g></g><g fill="#5faf3c" fill-opacity="1"><g transform="translate(670.363903, 151.812546)"><g><path d="M 22.875 -79.296875 L 22.875 -19.640625 C 22.875 -18.410156 22.875 -17.414062 22.875 -16.65625 C 22.875 -15.90625 22.910156 -15.132812 22.984375 -14.34375 C 23.128906 -13.050781 23.628906 -12.171875 24.484375 -11.703125 C 25.347656 -11.234375 27.039062 -11.035156 29.5625 -11.109375 L 29.5625 0.4375 C 27.976562 0.570312 26.359375 0.691406 24.703125 0.796875 C 23.046875 0.910156 21.285156 0.96875 19.421875 0.96875 C 15.390625 0.96875 12.222656 0.125 9.921875 -1.5625 C 7.617188 -3.25 6.363281 -5.960938 6.15625 -9.703125 C 6.082031 -11.148438 6.023438 -12.609375 5.984375 -14.078125 C 5.953125 -15.554688 5.9375 -17.300781 5.9375 -19.3125 L 5.9375 -79.296875 Z M 22.875 -79.296875 "/></g></g></g></svg>