<svg xmlns="http://www.w3.org/2000/svg" xmlns:xlink="http://www.w3.org/1999/xlink" width="1200" zoomAndPan="magnify" viewBox="0 0 900 225" height="300" preserveAspectRatio="xMidYMid meet" version="1.0"><defs><g/><clipPath id="e91e67bff8"><path d="M 494.125 92.019531 L 555.625 92.019531 L 555.625 153.519531 L 494.125 153.519531 Z M 494.125 92.019531 " clip-rule="nonzero"/></clipPath><clipPath id="f853d27c5f"><path d="M 523 92.019531 L 526 92.019531 L 526 97 L 523 97 Z M 523 92.019531 " clip-rule="nonzero"/></clipPath><clipPath id="96b08c4ec7"><path d="M 494.125 121 L 499 121 L 499 124 L 494.125 124 Z M 494.125 121 " clip-rule="nonzero"/></clipPath><clipPath id="3b9d68c656"><path d="M 523 148 L 526 148 L 526 153.519531 L 523 153.519531 Z M 523 148 " clip-rule="nonzero"/></clipPath><clipPath id="ef5071d23b"><path d="M 550 121 L 555.625 121 L 555.625 124 L 550 124 Z M 550 121 " clip-rule="nonzero"/></clipPath><clipPath id="9f811cf7b1"><path d="M 495.871094 93.765625 L 553.621094 93.765625 L 553.621094 151.515625 L 495.871094 151.515625 Z M 495.871094 93.765625 " clip-rule="nonzero"/></clipPath></defs><g clip-path="url(#e91e67bff8)"><path fill="#6ac66b" d="M 524.699219 153.167969 C 520.570312 153.167969 516.566406 152.359375 512.796875 150.765625 C 509.15625 149.222656 505.886719 147.019531 503.078125 144.210938 C 500.273438 141.40625 498.066406 138.136719 496.527344 134.496094 C 494.933594 130.722656 494.125 126.71875 494.125 122.59375 C 494.125 118.464844 494.933594 114.460938 496.527344 110.691406 C 498.066406 107.050781 500.273438 103.78125 503.078125 100.972656 C 505.886719 98.167969 509.15625 95.960938 512.796875 94.421875 C 516.566406 92.828125 520.570312 92.019531 524.699219 92.019531 C 528.824219 92.019531 532.828125 92.828125 536.601562 94.421875 C 540.242188 95.960938 543.511719 98.167969 546.316406 100.972656 C 549.125 103.78125 551.328125 107.050781 552.871094 110.691406 C 554.464844 114.460938 555.273438 118.464844 555.273438 122.59375 C 555.273438 126.71875 554.464844 130.722656 552.871094 134.496094 C 551.328125 138.136719 549.125 141.40625 546.316406 144.210938 C 543.511719 147.019531 540.242188 149.222656 536.601562 150.765625 C 532.828125 152.359375 528.824219 153.167969 524.699219 153.167969 Z M 524.699219 94.230469 C 520.871094 94.230469 517.15625 94.980469 513.660156 96.460938 C 510.28125 97.886719 507.25 99.933594 504.644531 102.539062 C 502.039062 105.144531 499.992188 108.175781 498.566406 111.554688 C 497.085938 115.050781 496.335938 118.765625 496.335938 122.59375 C 496.335938 126.421875 497.085938 130.136719 498.566406 133.632812 C 499.992188 137.011719 502.039062 140.042969 504.644531 142.648438 C 507.25 145.253906 510.28125 147.296875 513.660156 148.726562 C 517.15625 150.207031 520.871094 150.957031 524.699219 150.957031 C 528.527344 150.957031 532.242188 150.207031 535.738281 148.726562 C 539.117188 147.296875 542.148438 145.253906 544.753906 142.648438 C 547.359375 140.042969 549.402344 137.011719 550.832031 133.632812 C 552.3125 130.136719 553.0625 126.421875 553.0625 122.59375 C 553.0625 118.765625 552.3125 115.050781 550.832031 111.554688 C 549.402344 108.175781 547.359375 105.144531 544.753906 102.539062 C 542.148438 99.933594 539.117188 97.886719 535.738281 96.460938 C 532.242188 94.980469 528.527344 94.230469 524.699219 94.230469 Z M 524.699219 94.230469 " fill-opacity="1" fill-rule="nonzero"/></g><path fill="#6ac66b" d="M 524.699219 144.40625 C 521.753906 144.40625 518.898438 143.828125 516.207031 142.691406 C 513.609375 141.59375 511.277344 140.019531 509.273438 138.019531 C 507.269531 136.015625 505.699219 133.683594 504.601562 131.085938 C 503.460938 128.394531 502.886719 125.539062 502.886719 122.59375 C 502.886719 119.648438 503.460938 116.792969 504.601562 114.101562 C 505.699219 111.503906 507.269531 109.171875 509.273438 107.167969 C 511.277344 105.167969 513.609375 103.59375 516.207031 102.496094 C 518.898438 101.355469 521.753906 100.78125 524.699219 100.78125 C 527.644531 100.78125 530.5 101.355469 533.191406 102.496094 C 535.789062 103.59375 538.121094 105.164062 540.125 107.167969 C 542.125 109.171875 543.699219 111.503906 544.796875 114.101562 C 545.933594 116.792969 546.511719 119.648438 546.511719 122.59375 C 546.511719 125.539062 545.933594 128.394531 544.796875 131.085938 C 543.699219 133.683594 542.125 136.015625 540.125 138.019531 C 538.121094 140.019531 535.789062 141.59375 533.191406 142.691406 C 530.5 143.828125 527.644531 144.40625 524.699219 144.40625 Z M 524.699219 102.992188 C 522.050781 102.992188 519.484375 103.511719 517.070312 104.53125 C 514.734375 105.519531 512.640625 106.933594 510.839844 108.734375 C 509.039062 110.535156 507.625 112.628906 506.636719 114.964844 C 505.617188 117.378906 505.097656 119.945312 505.097656 122.59375 C 505.097656 125.238281 505.617188 127.808594 506.636719 130.222656 C 507.625 132.558594 509.039062 134.652344 510.839844 136.453125 C 512.640625 138.253906 514.734375 139.667969 517.070312 140.65625 C 519.484375 141.675781 522.050781 142.195312 524.699219 142.195312 C 527.34375 142.195312 529.914062 141.675781 532.328125 140.65625 C 534.660156 139.667969 536.757812 138.253906 538.558594 136.453125 C 540.359375 134.652344 541.773438 132.558594 542.761719 130.222656 C 543.78125 127.808594 544.300781 125.238281 544.300781 122.59375 C 544.300781 119.945312 543.78125 117.378906 542.761719 114.964844 C 541.773438 112.628906 540.359375 110.535156 538.558594 108.734375 C 536.757812 106.933594 534.660156 105.519531 532.328125 104.53125 C 529.914062 103.511719 527.34375 102.992188 524.699219 102.992188 Z M 524.699219 102.992188 " fill-opacity="1" fill-rule="nonzero"/><path fill="#6ac66b" d="M 524.699219 129.273438 C 521.015625 129.273438 518.015625 126.277344 518.015625 122.59375 C 518.015625 118.910156 521.015625 115.914062 524.699219 115.914062 C 528.382812 115.914062 531.378906 118.910156 531.378906 122.59375 C 531.378906 126.277344 528.382812 129.273438 524.699219 129.273438 Z M 524.699219 118.125 C 522.234375 118.125 520.230469 120.128906 520.230469 122.59375 C 520.230469 125.058594 522.234375 127.0625 524.699219 127.0625 C 527.164062 127.0625 529.167969 125.058594 529.167969 122.59375 C 529.167969 120.128906 527.164062 118.125 524.699219 118.125 Z M 524.699219 118.125 " fill-opacity="1" fill-rule="nonzero"/><g clip-path="url(#f853d27c5f)"><path fill="#6ac66b" d="M 524.699219 96.621094 C 524.085938 96.621094 523.59375 96.125 523.59375 95.515625 L 523.59375 93.125 C 523.59375 92.515625 524.085938 92.019531 524.699219 92.019531 C 525.308594 92.019531 525.804688 92.515625 525.804688 93.125 L 525.804688 95.515625 C 525.804688 96.125 525.308594 96.621094 524.699219 96.621094 Z M 524.699219 96.621094 " fill-opacity="1" fill-rule="nonzero"/></g><path fill="#6ac66b" d="M 517.691406 97.542969 C 517.199219 97.542969 516.753906 97.21875 516.621094 96.722656 L 516.003906 94.414062 C 515.84375 93.824219 516.195312 93.21875 516.785156 93.0625 C 517.375 92.902344 517.980469 93.253906 518.140625 93.84375 L 518.757812 96.152344 C 518.917969 96.742188 518.566406 97.347656 517.976562 97.503906 C 517.878906 97.53125 517.785156 97.542969 517.691406 97.542969 Z M 517.691406 97.542969 " fill-opacity="1" fill-rule="nonzero"/><path fill="#6ac66b" d="M 511.160156 100.25 C 510.777344 100.25 510.40625 100.050781 510.203125 99.695312 L 509.007812 97.625 C 508.703125 97.097656 508.882812 96.421875 509.410156 96.117188 C 509.941406 95.808594 510.617188 95.992188 510.921875 96.519531 L 512.117188 98.589844 C 512.421875 99.117188 512.242188 99.796875 511.710938 100.101562 C 511.539062 100.199219 511.347656 100.25 511.160156 100.25 Z M 511.160156 100.25 " fill-opacity="1" fill-rule="nonzero"/><path fill="#6ac66b" d="M 505.550781 104.550781 C 505.269531 104.550781 504.984375 104.445312 504.769531 104.226562 L 503.078125 102.539062 C 502.648438 102.105469 502.648438 101.40625 503.078125 100.972656 C 503.511719 100.542969 504.210938 100.542969 504.644531 100.972656 L 506.332031 102.664062 C 506.765625 103.09375 506.765625 103.796875 506.332031 104.226562 C 506.117188 104.445312 505.835938 104.550781 505.550781 104.550781 Z M 505.550781 104.550781 " fill-opacity="1" fill-rule="nonzero"/><path fill="#6ac66b" d="M 501.246094 110.160156 C 501.058594 110.160156 500.867188 110.113281 500.695312 110.011719 L 498.625 108.816406 C 498.097656 108.511719 497.914062 107.835938 498.21875 107.304688 C 498.527344 106.777344 499.203125 106.597656 499.730469 106.902344 L 501.800781 108.097656 C 502.328125 108.402344 502.511719 109.078125 502.207031 109.605469 C 502 109.960938 501.628906 110.160156 501.246094 110.160156 Z M 501.246094 110.160156 " fill-opacity="1" fill-rule="nonzero"/><path fill="#6ac66b" d="M 498.542969 116.691406 C 498.449219 116.691406 498.351562 116.679688 498.257812 116.652344 L 495.949219 116.035156 C 495.359375 115.875 495.007812 115.269531 495.167969 114.679688 C 495.324219 114.089844 495.929688 113.738281 496.519531 113.898438 L 498.828125 114.515625 C 499.417969 114.675781 499.769531 115.28125 499.609375 115.871094 C 499.480469 116.367188 499.03125 116.691406 498.542969 116.691406 Z M 498.542969 116.691406 " fill-opacity="1" fill-rule="nonzero"/><g clip-path="url(#96b08c4ec7)"><path fill="#6ac66b" d="M 497.621094 123.699219 L 495.230469 123.699219 C 494.621094 123.699219 494.125 123.203125 494.125 122.59375 C 494.125 121.984375 494.621094 121.488281 495.230469 121.488281 L 497.621094 121.488281 C 498.230469 121.488281 498.726562 121.984375 498.726562 122.59375 C 498.726562 123.203125 498.230469 123.699219 497.621094 123.699219 Z M 497.621094 123.699219 " fill-opacity="1" fill-rule="nonzero"/></g><path fill="#6ac66b" d="M 496.234375 131.328125 C 495.746094 131.328125 495.296875 131 495.167969 130.507812 C 495.007812 129.917969 495.359375 129.308594 495.949219 129.152344 L 498.257812 128.535156 C 498.847656 128.375 499.453125 128.726562 499.609375 129.316406 C 499.769531 129.90625 499.417969 130.511719 498.828125 130.671875 L 496.519531 131.289062 C 496.425781 131.3125 496.328125 131.328125 496.234375 131.328125 Z M 496.234375 131.328125 " fill-opacity="1" fill-rule="nonzero"/><path fill="#6ac66b" d="M 499.179688 138.433594 C 498.796875 138.433594 498.425781 138.234375 498.21875 137.878906 C 497.914062 137.351562 498.097656 136.675781 498.625 136.371094 L 500.695312 135.175781 C 501.222656 134.871094 501.898438 135.050781 502.207031 135.578125 C 502.511719 136.109375 502.328125 136.785156 501.800781 137.089844 L 499.730469 138.285156 C 499.558594 138.386719 499.367188 138.433594 499.179688 138.433594 Z M 499.179688 138.433594 " fill-opacity="1" fill-rule="nonzero"/><path fill="#6ac66b" d="M 503.863281 144.535156 C 503.578125 144.535156 503.296875 144.429688 503.078125 144.210938 C 502.648438 143.78125 502.648438 143.082031 503.078125 142.648438 L 504.769531 140.957031 C 505.199219 140.527344 505.902344 140.527344 506.332031 140.957031 C 506.765625 141.390625 506.765625 142.089844 506.332031 142.523438 L 504.644531 144.210938 C 504.429688 144.429688 504.144531 144.535156 503.863281 144.535156 Z M 503.863281 144.535156 " fill-opacity="1" fill-rule="nonzero"/><path fill="#6ac66b" d="M 509.964844 149.21875 C 509.777344 149.21875 509.585938 149.171875 509.410156 149.070312 C 508.882812 148.765625 508.703125 148.089844 509.007812 147.558594 L 510.203125 145.492188 C 510.507812 144.960938 511.183594 144.78125 511.710938 145.085938 C 512.242188 145.390625 512.421875 146.066406 512.117188 146.597656 L 510.921875 148.667969 C 510.71875 149.023438 510.347656 149.21875 509.964844 149.21875 Z M 509.964844 149.21875 " fill-opacity="1" fill-rule="nonzero"/><path fill="#6ac66b" d="M 517.074219 152.164062 C 516.976562 152.164062 516.882812 152.152344 516.785156 152.125 C 516.195312 151.96875 515.84375 151.359375 516.003906 150.769531 L 516.621094 148.464844 C 516.78125 147.875 517.386719 147.523438 517.976562 147.679688 C 518.566406 147.839844 518.917969 148.445312 518.757812 149.035156 L 518.140625 151.34375 C 518.007812 151.835938 517.5625 152.164062 517.074219 152.164062 Z M 517.074219 152.164062 " fill-opacity="1" fill-rule="nonzero"/><g clip-path="url(#3b9d68c656)"><path fill="#6ac66b" d="M 524.699219 153.167969 C 524.085938 153.167969 523.59375 152.671875 523.59375 152.0625 L 523.59375 149.671875 C 523.59375 149.0625 524.085938 148.566406 524.699219 148.566406 C 525.308594 148.566406 525.804688 149.0625 525.804688 149.671875 L 525.804688 152.0625 C 525.804688 152.671875 525.308594 153.167969 524.699219 153.167969 Z M 524.699219 153.167969 " fill-opacity="1" fill-rule="nonzero"/></g><path fill="#6ac66b" d="M 532.324219 152.164062 C 531.835938 152.164062 531.390625 151.835938 531.257812 151.34375 L 530.640625 149.035156 C 530.480469 148.445312 530.832031 147.839844 531.421875 147.679688 C 532.011719 147.523438 532.617188 147.871094 532.777344 148.464844 L 533.394531 150.769531 C 533.550781 151.359375 533.203125 151.96875 532.613281 152.125 C 532.515625 152.152344 532.417969 152.164062 532.324219 152.164062 Z M 532.324219 152.164062 " fill-opacity="1" fill-rule="nonzero"/><path fill="#6ac66b" d="M 539.433594 149.21875 C 539.050781 149.21875 538.679688 149.023438 538.476562 148.667969 L 537.28125 146.597656 C 536.976562 146.066406 537.15625 145.390625 537.683594 145.085938 C 538.214844 144.78125 538.890625 144.960938 539.195312 145.492188 L 540.390625 147.558594 C 540.695312 148.089844 540.515625 148.765625 539.984375 149.070312 C 539.8125 149.171875 539.621094 149.21875 539.433594 149.21875 Z M 539.433594 149.21875 " fill-opacity="1" fill-rule="nonzero"/><path fill="#6ac66b" d="M 545.535156 144.535156 C 545.253906 144.535156 544.96875 144.429688 544.753906 144.210938 L 543.0625 142.523438 C 542.632812 142.089844 542.632812 141.390625 543.0625 140.957031 C 543.496094 140.527344 544.195312 140.527344 544.628906 140.957031 L 546.316406 142.648438 C 546.75 143.082031 546.75 143.78125 546.316406 144.210938 C 546.101562 144.429688 545.820312 144.535156 545.535156 144.535156 Z M 545.535156 144.535156 " fill-opacity="1" fill-rule="nonzero"/><path fill="#6ac66b" d="M 550.21875 138.433594 C 550.03125 138.433594 549.839844 138.386719 549.664062 138.285156 L 547.597656 137.089844 C 547.066406 136.785156 546.886719 136.109375 547.191406 135.578125 C 547.496094 135.050781 548.171875 134.871094 548.703125 135.175781 L 550.773438 136.371094 C 551.300781 136.675781 551.480469 137.351562 551.175781 137.878906 C 550.972656 138.234375 550.601562 138.433594 550.21875 138.433594 Z M 550.21875 138.433594 " fill-opacity="1" fill-rule="nonzero"/><path fill="#6ac66b" d="M 553.164062 131.328125 C 553.070312 131.328125 552.972656 131.3125 552.875 131.289062 L 550.570312 130.671875 C 549.976562 130.511719 549.628906 129.90625 549.785156 129.316406 C 549.945312 128.726562 550.550781 128.375 551.140625 128.535156 L 553.449219 129.152344 C 554.039062 129.308594 554.390625 129.917969 554.230469 130.507812 C 554.097656 131 553.652344 131.328125 553.164062 131.328125 Z M 553.164062 131.328125 " fill-opacity="1" fill-rule="nonzero"/><g clip-path="url(#ef5071d23b)"><path fill="#6ac66b" d="M 554.167969 123.699219 L 551.777344 123.699219 C 551.167969 123.699219 550.671875 123.203125 550.671875 122.59375 C 550.671875 121.984375 551.167969 121.488281 551.777344 121.488281 L 554.167969 121.488281 C 554.777344 121.488281 555.273438 121.984375 555.273438 122.59375 C 555.273438 123.203125 554.777344 123.699219 554.167969 123.699219 Z M 554.167969 123.699219 " fill-opacity="1" fill-rule="nonzero"/></g><path fill="#6ac66b" d="M 550.855469 116.691406 C 550.367188 116.691406 549.917969 116.367188 549.785156 115.871094 C 549.628906 115.28125 549.976562 114.675781 550.570312 114.515625 L 552.875 113.898438 C 553.464844 113.738281 554.074219 114.089844 554.230469 114.679688 C 554.390625 115.269531 554.039062 115.875 553.449219 116.035156 L 551.140625 116.652344 C 551.046875 116.679688 550.949219 116.691406 550.855469 116.691406 Z M 550.855469 116.691406 " fill-opacity="1" fill-rule="nonzero"/><path fill="#6ac66b" d="M 548.152344 110.160156 C 547.769531 110.160156 547.394531 109.960938 547.191406 109.605469 C 546.886719 109.078125 547.066406 108.402344 547.597656 108.097656 L 549.664062 106.902344 C 550.195312 106.597656 550.871094 106.777344 551.175781 107.304688 C 551.480469 107.835938 551.300781 108.511719 550.773438 108.816406 L 548.703125 110.011719 C 548.527344 110.113281 548.339844 110.160156 548.152344 110.160156 Z M 548.152344 110.160156 " fill-opacity="1" fill-rule="nonzero"/><path fill="#6ac66b" d="M 543.847656 104.550781 C 543.5625 104.550781 543.28125 104.445312 543.0625 104.226562 C 542.632812 103.796875 542.632812 103.097656 543.0625 102.664062 L 544.753906 100.972656 C 545.183594 100.542969 545.886719 100.542969 546.316406 100.972656 C 546.75 101.40625 546.75 102.105469 546.316406 102.539062 L 544.628906 104.226562 C 544.414062 104.445312 544.128906 104.550781 543.847656 104.550781 Z M 543.847656 104.550781 " fill-opacity="1" fill-rule="nonzero"/><path fill="#6ac66b" d="M 538.238281 100.25 C 538.050781 100.25 537.859375 100.199219 537.683594 100.101562 C 537.15625 99.796875 536.976562 99.117188 537.28125 98.589844 L 538.476562 96.519531 C 538.78125 95.992188 539.457031 95.808594 539.984375 96.117188 C 540.515625 96.421875 540.695312 97.097656 540.390625 97.625 L 539.195312 99.695312 C 538.992188 100.050781 538.621094 100.25 538.238281 100.25 Z M 538.238281 100.25 " fill-opacity="1" fill-rule="nonzero"/><path fill="#6ac66b" d="M 531.707031 97.542969 C 531.613281 97.542969 531.515625 97.53125 531.421875 97.503906 C 530.832031 97.347656 530.480469 96.742188 530.640625 96.152344 L 531.257812 93.84375 C 531.414062 93.253906 532.023438 92.902344 532.613281 93.0625 C 533.203125 93.21875 533.550781 93.824219 533.394531 94.414062 L 532.777344 96.722656 C 532.644531 97.21875 532.195312 97.542969 531.707031 97.542969 Z M 531.707031 97.542969 " fill-opacity="1" fill-rule="nonzero"/><path fill="#6ac66b" d="M 526.292969 122.59375 C 526.292969 122.804688 526.25 123.007812 526.171875 123.203125 C 526.089844 123.398438 525.972656 123.570312 525.824219 123.71875 C 525.675781 123.867188 525.503906 123.984375 525.308594 124.066406 C 525.113281 124.144531 524.910156 124.1875 524.699219 124.1875 C 524.488281 124.1875 524.285156 124.144531 524.089844 124.066406 C 523.894531 123.984375 523.722656 123.867188 523.574219 123.71875 C 523.421875 123.570312 523.308594 123.398438 523.226562 123.203125 C 523.144531 123.007812 523.105469 122.804688 523.105469 122.59375 C 523.105469 122.382812 523.144531 122.179688 523.226562 121.984375 C 523.308594 121.789062 523.421875 121.617188 523.574219 121.46875 C 523.722656 121.316406 523.894531 121.203125 524.089844 121.121094 C 524.285156 121.039062 524.488281 121 524.699219 121 C 524.910156 121 525.113281 121.039062 525.308594 121.121094 C 525.503906 121.203125 525.675781 121.316406 525.824219 121.46875 C 525.972656 121.617188 526.089844 121.789062 526.171875 121.984375 C 526.25 122.179688 526.292969 122.382812 526.292969 122.59375 Z M 526.292969 122.59375 " fill-opacity="1" fill-rule="nonzero"/><path fill="#6ac66b" d="M 524.699219 125.292969 C 523.210938 125.292969 522 124.082031 522 122.59375 C 522 121.105469 523.210938 119.894531 524.699219 119.894531 C 526.1875 119.894531 527.398438 121.105469 527.398438 122.59375 C 527.398438 124.082031 526.1875 125.292969 524.699219 125.292969 Z M 524.699219 122.105469 C 524.429688 122.105469 524.210938 122.324219 524.210938 122.59375 C 524.210938 122.863281 524.429688 123.082031 524.699219 123.082031 C 524.96875 123.082031 525.183594 122.863281 525.183594 122.59375 C 525.183594 122.324219 524.96875 122.105469 524.699219 122.105469 Z M 524.699219 122.105469 " fill-opacity="1" fill-rule="nonzero"/><path fill="#6ac66b" d="M 523.59375 101.886719 L 525.804688 101.886719 L 525.804688 117.019531 L 523.59375 117.019531 Z M 523.59375 101.886719 " fill-opacity="1" fill-rule="nonzero"/><path fill="#6ac66b" d="M 504.65625 117.246094 L 505.339844 115.140625 L 519.738281 119.820312 L 519.054688 121.921875 Z M 504.65625 117.246094 " fill-opacity="1" fill-rule="nonzero"/><path fill="#6ac66b" d="M 511.632812 138.695312 L 520.527344 126.453125 L 522.316406 127.753906 L 513.421875 139.996094 Z M 511.632812 138.695312 " fill-opacity="1" fill-rule="nonzero"/><path fill="#6ac66b" d="M 527.082031 127.753906 L 528.871094 126.453125 L 537.765625 138.695312 L 535.976562 139.996094 Z M 527.082031 127.753906 " fill-opacity="1" fill-rule="nonzero"/><path fill="#6ac66b" d="M 529.660156 119.820312 L 544.054688 115.140625 L 544.738281 117.246094 L 530.34375 121.921875 Z M 529.660156 119.820312 " fill-opacity="1" fill-rule="nonzero"/><g clip-path="url(#9f811cf7b1)"><path fill="#6ac66b" d="M 514.386719 149.507812 C 510.796875 148.136719 507.519531 146.074219 504.71875 143.382812 C 501.921875 140.6875 499.730469 137.519531 498.195312 133.980469 C 496.71875 130.546875 495.953125 126.925781 495.871094 123.175781 C 495.792969 119.425781 496.425781 115.78125 497.773438 112.296875 C 499.148438 108.703125 501.207031 105.429688 503.902344 102.628906 C 506.597656 99.828125 509.765625 97.636719 513.304688 96.105469 C 516.738281 94.625 520.355469 93.859375 524.105469 93.78125 C 527.855469 93.703125 531.5 94.335938 534.988281 95.683594 C 538.578125 97.054688 541.855469 99.117188 544.65625 101.808594 C 547.453125 104.503906 549.644531 107.671875 551.179688 111.210938 C 552.65625 114.644531 553.421875 118.265625 553.503906 122.015625 C 553.582031 125.765625 552.949219 129.410156 551.601562 132.894531 C 550.226562 136.488281 548.167969 139.761719 545.472656 142.5625 C 542.78125 145.363281 539.609375 147.554688 536.070312 149.085938 C 532.636719 150.566406 529.019531 151.332031 525.269531 151.410156 C 525.058594 151.410156 524.871094 151.410156 524.660156 151.410156 C 521.121094 151.410156 517.664062 150.777344 514.386719 149.507812 Z M 524.160156 96.976562 C 517.320312 97.109375 510.925781 99.90625 506.199219 104.847656 C 501.472656 109.785156 498.9375 116.285156 499.070312 123.125 C 499.199219 129.964844 502 136.355469 506.9375 141.082031 C 511.746094 145.707031 518.03125 148.214844 524.6875 148.214844 C 524.871094 148.214844 525.03125 148.214844 525.214844 148.214844 C 532.054688 148.082031 538.449219 145.28125 543.175781 140.34375 C 547.902344 135.40625 550.4375 128.90625 550.308594 122.066406 C 550.175781 115.226562 547.375 108.835938 542.4375 104.109375 C 537.628906 99.484375 531.34375 96.976562 524.6875 96.976562 C 518.03125 96.976562 524.34375 96.976562 524.160156 96.976562 Z M 524.160156 96.976562 " fill-opacity="1" fill-rule="nonzero"/></g><g fill="#f5f5f5" fill-opacity="1"><g transform="translate(195.169694, 151.875004)"><g><path d="M 65.65625 -18.65625 C 66.164062 -14.21875 66.835938 -10.539062 67.671875 -7.625 C 68.503906 -4.71875 69.6875 -2.175781 71.21875 0 L 52.5625 0 C 51.625 -2.613281 50.878906 -5.15625 50.328125 -7.625 C 49.785156 -10.101562 49.332031 -12.90625 48.96875 -16.03125 C 48.457031 -20.101562 47.398438 -23.300781 45.796875 -25.625 C 44.203125 -27.957031 41.988281 -29.234375 39.15625 -29.453125 C 38.132812 -29.523438 37.132812 -29.5625 36.15625 -29.5625 C 35.175781 -29.5625 34.175781 -29.5625 33.15625 -29.5625 L 26.390625 -29.5625 L 26.390625 0 L 9.265625 0 L 9.265625 -75.25 L 37.84375 -75.25 C 40.09375 -75.25 42.054688 -75.210938 43.734375 -75.140625 C 45.410156 -75.066406 47.226562 -74.921875 49.1875 -74.703125 C 52.820312 -74.265625 56.144531 -73.316406 59.15625 -71.859375 C 62.175781 -70.410156 64.59375 -68.304688 66.40625 -65.546875 C 68.226562 -62.785156 69.140625 -59.1875 69.140625 -54.75 C 69.140625 -49.945312 67.832031 -46 65.21875 -42.90625 C 62.601562 -39.820312 58.929688 -37.585938 54.203125 -36.203125 C 58.054688 -34.828125 60.816406 -32.644531 62.484375 -29.65625 C 64.160156 -26.675781 65.21875 -23.007812 65.65625 -18.65625 Z M 26.390625 -42.09375 L 35.234375 -42.09375 C 36.460938 -42.09375 37.550781 -42.09375 38.5 -42.09375 C 39.445312 -42.09375 40.28125 -42.128906 41 -42.203125 C 43.769531 -42.492188 46.171875 -43.347656 48.203125 -44.765625 C 50.242188 -46.179688 51.265625 -48.597656 51.265625 -52.015625 C 51.265625 -55.441406 50.351562 -57.84375 48.53125 -59.21875 C 46.71875 -60.601562 44.425781 -61.441406 41.65625 -61.734375 C 40.9375 -61.804688 40.101562 -61.859375 39.15625 -61.890625 C 38.207031 -61.929688 37.113281 -61.953125 35.875 -61.953125 L 26.390625 -61.953125 Z M 26.390625 -42.09375 "/></g></g></g><g fill="#f5f5f5" fill-opacity="1"><g transform="translate(265.618868, 151.875004)"><g><path d="M 61.078125 -30.09375 C 61.078125 -28.570312 60.96875 -26.753906 60.75 -24.640625 L 19.953125 -24.640625 C 20.460938 -19.117188 21.828125 -15.335938 24.046875 -13.296875 C 26.265625 -11.265625 28.972656 -10.25 32.171875 -10.25 C 35.148438 -10.25 37.601562 -11.03125 39.53125 -12.59375 C 41.457031 -14.15625 42.675781 -16.285156 43.1875 -18.984375 L 60.09375 -18.984375 C 58.488281 -12.285156 55.160156 -7.191406 50.109375 -3.703125 C 45.054688 -0.210938 38.96875 1.53125 31.84375 1.53125 C 26.46875 1.53125 21.578125 0.421875 17.171875 -1.796875 C 12.773438 -4.015625 9.285156 -7.378906 6.703125 -11.890625 C 4.117188 -16.398438 2.828125 -22.070312 2.828125 -28.90625 C 2.828125 -34.71875 4.0625 -39.953125 6.53125 -44.609375 C 9.007812 -49.265625 12.503906 -52.9375 17.015625 -55.625 C 21.523438 -58.3125 26.832031 -59.65625 32.9375 -59.65625 C 39.113281 -59.65625 44.289062 -58.273438 48.46875 -55.515625 C 52.65625 -52.753906 55.800781 -49.117188 57.90625 -44.609375 C 60.019531 -40.097656 61.078125 -35.257812 61.078125 -30.09375 Z M 32.171875 -47.875 C 29.117188 -47.875 26.570312 -46.875 24.53125 -44.875 C 22.5 -42.875 21.117188 -39.726562 20.390625 -35.4375 L 43.296875 -35.4375 C 42.273438 -43.726562 38.566406 -47.875 32.171875 -47.875 Z M 32.171875 -47.875 "/></g></g></g><g fill="#f5f5f5" fill-opacity="1"><g transform="translate(327.561775, 151.875004)"><g><path d="M 62.5 -43.625 C 62.707031 -42.164062 62.847656 -40.582031 62.921875 -38.875 C 62.992188 -37.164062 63.03125 -35.148438 63.03125 -32.828125 L 63.03125 0 L 45.921875 0 L 45.921875 -30.203125 C 45.921875 -31.296875 45.921875 -32.550781 45.921875 -33.96875 C 45.921875 -35.382812 45.847656 -36.820312 45.703125 -38.28125 C 45.484375 -41.257812 44.535156 -43.601562 42.859375 -45.3125 C 41.191406 -47.019531 38.6875 -47.875 35.34375 -47.875 C 31.988281 -47.875 29.1875 -46.238281 26.9375 -42.96875 C 24.6875 -39.695312 23.5625 -34.351562 23.5625 -26.9375 L 23.5625 0 L 6.4375 0 L 6.4375 -58.125 L 23.5625 -58.125 L 23.5625 -48.96875 L 28.359375 -55.953125 C 32.066406 -58.421875 36.570312 -59.65625 41.875 -59.65625 C 47.988281 -59.65625 52.789062 -58.253906 56.28125 -55.453125 C 59.769531 -52.660156 61.84375 -48.71875 62.5 -43.625 Z M 62.5 -43.625 "/></g></g></g><g fill="#f5f5f5" fill-opacity="1"><g transform="translate(394.194023, 151.875004)"><g><path d="M 26.9375 -46.78125 L 26.9375 -22.359375 C 26.9375 -21.410156 26.9375 -20.460938 26.9375 -19.515625 C 26.9375 -18.578125 26.972656 -17.707031 27.046875 -16.90625 C 27.265625 -14 28.082031 -12.109375 29.5 -11.234375 C 30.914062 -10.359375 33.804688 -10.066406 38.171875 -10.359375 L 38.171875 0.546875 C 36.421875 0.835938 34.691406 1.054688 32.984375 1.203125 C 31.273438 1.347656 29.476562 1.421875 27.59375 1.421875 C 21.195312 1.421875 16.757812 0.367188 14.28125 -1.734375 C 11.8125 -3.847656 10.394531 -7.015625 10.03125 -11.234375 C 9.957031 -12.691406 9.898438 -14.128906 9.859375 -15.546875 C 9.828125 -16.960938 9.8125 -18.46875 9.8125 -20.0625 L 9.8125 -46.78125 L 0.984375 -46.78125 L 0.984375 -57.6875 L 9.8125 -57.6875 L 9.8125 -72.3125 L 26.9375 -72.3125 L 26.9375 -57.6875 L 39.265625 -57.6875 L 39.265625 -46.78125 Z M 26.9375 -46.78125 "/></g></g></g><g fill="#6fcf5b" fill-opacity="1"><g transform="translate(433.236094, 151.875004)"><g><path d="M 65.109375 -14.390625 L 65.109375 0 L 9.265625 0 L 9.265625 -75.25 L 26.390625 -75.25 L 26.390625 -14.390625 Z M 65.109375 -14.390625 "/></g></g></g><g fill="#6fcf5b" fill-opacity="1"><g transform="translate(498.134529, 151.875004)"><g/></g></g><g fill="#6fcf5b" fill-opacity="1"><g transform="translate(516.237456, 151.875004)"><g/></g></g><g fill="#6fcf5b" fill-opacity="1"><g transform="translate(534.340384, 151.875004)"><g/></g></g><g fill="#6fcf5b" fill-opacity="1"><g transform="translate(552.450929, 151.875004)"><g><path d="M 32.609375 -59.65625 C 38.066406 -59.65625 42.753906 -58.632812 46.671875 -56.59375 C 50.597656 -54.5625 53.6875 -51.816406 55.9375 -48.359375 C 58.195312 -44.910156 59.472656 -41.003906 59.765625 -36.640625 L 43.078125 -36.640625 C 42.492188 -40.640625 41.238281 -43.507812 39.3125 -45.25 C 37.382812 -47 35.003906 -47.875 32.171875 -47.875 C 28.609375 -47.875 25.753906 -46.382812 23.609375 -43.40625 C 21.460938 -40.425781 20.390625 -35.847656 20.390625 -29.671875 C 20.390625 -22.898438 21.460938 -17.96875 23.609375 -14.875 C 25.753906 -11.789062 28.609375 -10.25 32.171875 -10.25 C 34.785156 -10.25 37.054688 -11.140625 38.984375 -12.921875 C 40.910156 -14.703125 42.203125 -17.265625 42.859375 -20.609375 L 59.765625 -20.609375 C 58.597656 -13.335938 55.429688 -7.828125 50.265625 -4.078125 C 45.109375 -0.335938 38.75 1.53125 31.1875 1.53125 C 25.8125 1.53125 20.976562 0.382812 16.6875 -1.90625 C 12.394531 -4.195312 9.007812 -7.578125 6.53125 -12.046875 C 4.0625 -16.523438 2.828125 -22.035156 2.828125 -28.578125 C 2.828125 -35.265625 4.171875 -40.914062 6.859375 -45.53125 C 9.554688 -50.144531 13.160156 -53.648438 17.671875 -56.046875 C 22.179688 -58.453125 27.160156 -59.65625 32.609375 -59.65625 Z M 32.609375 -59.65625 "/></g></g></g><g fill="#6fcf5b" fill-opacity="1"><g transform="translate(612.758017, 151.875004)"><g><path d="M 40.359375 0 L 39.15625 -8.5 L 36.53125 -2.296875 C 34.5 -0.984375 32.265625 -0.0195312 29.828125 0.59375 C 27.390625 1.21875 24.828125 1.53125 22.140625 1.53125 C 18.867188 1.53125 15.8125 0.875 12.96875 -0.4375 C 10.132812 -1.75 7.84375 -3.675781 6.09375 -6.21875 C 4.351562 -8.757812 3.484375 -11.847656 3.484375 -15.484375 C 3.484375 -21.804688 6.207031 -26.726562 11.65625 -30.25 C 17.113281 -33.78125 24.972656 -35.546875 35.234375 -35.546875 L 38.9375 -35.546875 L 38.9375 -36.53125 C 38.9375 -37.332031 38.9375 -38.132812 38.9375 -38.9375 C 38.9375 -39.738281 38.863281 -40.609375 38.71875 -41.546875 C 38.570312 -43.296875 37.828125 -44.785156 36.484375 -46.015625 C 35.140625 -47.253906 33.191406 -47.875 30.640625 -47.875 C 27.953125 -47.875 25.878906 -47.09375 24.421875 -45.53125 C 22.972656 -43.96875 22.140625 -41.734375 21.921875 -38.828125 L 5.5625 -38.828125 C 5.707031 -43.265625 6.925781 -47.023438 9.21875 -50.109375 C 11.507812 -53.203125 14.582031 -55.566406 18.4375 -57.203125 C 22.289062 -58.835938 26.578125 -59.65625 31.296875 -59.65625 C 37.046875 -59.65625 41.644531 -58.890625 45.09375 -57.359375 C 48.550781 -55.835938 51.097656 -53.726562 52.734375 -51.03125 C 54.367188 -48.34375 55.332031 -45.253906 55.625 -41.765625 C 55.84375 -39.078125 55.953125 -35.953125 55.953125 -32.390625 L 55.953125 -14.71875 C 55.953125 -12.539062 56.023438 -10.34375 56.171875 -8.125 C 56.316406 -5.90625 56.609375 -3.195312 57.046875 0 Z M 28.90625 -10.25 C 31.445312 -10.25 33.753906 -11.175781 35.828125 -13.03125 C 37.898438 -14.882812 38.9375 -17.59375 38.9375 -21.15625 L 38.9375 -25.40625 C 33.625 -25.84375 29.3125 -25.390625 26 -24.046875 C 22.695312 -22.703125 21.046875 -20.320312 21.046875 -16.90625 C 21.046875 -14.71875 21.769531 -13.0625 23.21875 -11.9375 C 24.675781 -10.8125 26.570312 -10.25 28.90625 -10.25 Z M 28.90625 -10.25 "/></g></g></g><g fill="#6fcf5b" fill-opacity="1"><g transform="translate(673.065105, 151.875004)"><g><path d="M 23.125 -80.15625 L 23.125 -19.84375 C 23.125 -18.613281 23.125 -17.613281 23.125 -16.84375 C 23.125 -16.082031 23.160156 -15.300781 23.234375 -14.5 C 23.378906 -13.195312 23.882812 -12.304688 24.75 -11.828125 C 25.625 -11.359375 27.335938 -11.160156 29.890625 -11.234375 L 29.890625 0.4375 C 28.285156 0.582031 26.644531 0.707031 24.96875 0.8125 C 23.300781 0.925781 21.519531 0.984375 19.625 0.984375 C 15.5625 0.984375 12.363281 0.128906 10.03125 -1.578125 C 7.707031 -3.285156 6.4375 -6.03125 6.21875 -9.8125 C 6.144531 -11.269531 6.085938 -12.742188 6.046875 -14.234375 C 6.015625 -15.722656 6 -17.484375 6 -19.515625 L 6 -80.15625 Z M 23.125 -80.15625 "/></g></g></g></svg>